<?xml version="1.0" standalone="no"?>
<!DOCTYPE svg PUBLIC "-//W3C//DTD SVG 20010904//EN"
 "http://www.w3.org/TR/2001/REC-SVG-20010904/DTD/svg10.dtd">
<svg version="1.0" xmlns="http://www.w3.org/2000/svg"
 width="642.000000pt" height="642.000000pt" viewBox="0 0 642.000000 642.000000"
 preserveAspectRatio="xMidYMid meet">

<g transform="translate(0.000000,642.000000) scale(0.100000,-0.100000)"
fill="#000000" stroke="none">
<path d="M950 3215 l0 -615 2250 0 2250 0 0 615 0 615 -2250 0 -2250 0 0 -615z
m4468 3 l-3 -583 -2212 -3 -2213 -2 0 585 0 585 2215 0 2215 0 -2 -582z"/>
<path d="M3452 3399 c-42 -12 -75 -63 -67 -103 9 -52 32 -75 90 -91 79 -23
105 -53 65 -75 -26 -14 -57 -5 -70 21 -15 28 -90 28 -90 0 0 -32 48 -80 91
-91 51 -14 103 -4 140 27 24 20 29 33 29 68 0 58 -22 81 -100 108 -51 17 -66
27 -68 44 -5 34 45 44 69 15 13 -16 28 -22 59 -22 38 0 41 2 35 23 -11 35 -45
66 -84 77 -42 12 -55 11 -99 -1z"/>
<path d="M3700 3230 l0 -170 44 0 45 0 3 43 3 42 55 5 c65 7 95 24 115 66 21
45 19 86 -8 125 -29 44 -71 58 -174 58 l-83 1 0 -170z m174 74 c9 -8 16 -24
16 -34 0 -25 -42 -53 -72 -48 -20 3 -23 10 -26 51 l-3 47 35 0 c19 0 42 -7 50
-16z"/>
<path d="M4030 3230 l0 -170 45 0 45 0 0 65 0 65 60 0 60 0 0 -65 0 -65 45 0
45 0 0 170 0 170 -45 0 -45 0 0 -60 0 -60 -60 0 -60 0 0 60 0 60 -45 0 -45 0
0 -170z"/>
<path d="M4400 3230 l0 -170 115 0 115 0 0 40 0 40 -70 0 c-68 0 -70 1 -70 25
0 24 3 25 60 25 l60 0 0 40 0 40 -60 0 c-57 0 -60 1 -60 25 0 23 3 24 68 27
l67 3 3 38 3 37 -115 0 -116 0 0 -170z"/>
<path d="M4700 3230 l0 -170 45 0 45 0 0 50 c0 46 2 50 23 50 18 0 29 -11 47
-50 23 -50 24 -50 72 -50 26 0 48 2 48 5 0 3 -13 29 -30 58 -28 50 -29 53 -11
64 25 16 44 77 37 117 -13 68 -69 96 -192 96 l-84 0 0 -170z m178 78 c32 -32
0 -78 -54 -78 -34 0 -34 0 -34 45 l0 45 38 0 c21 0 43 -5 50 -12z"/>
<path d="M5050 3230 l0 -170 115 0 115 0 0 40 0 40 -70 0 c-68 0 -70 1 -70 25
0 22 4 24 58 27 l57 3 3 38 3 37 -60 0 c-58 0 -61 1 -61 25 0 24 2 25 65 25
l65 0 0 40 0 40 -110 0 -110 0 0 -170z"/>
<path d="M4833 2533 c9 -2 25 -2 35 0 9 3 1 5 -18 5 -19 0 -27 -2 -17 -5z"/>
<path d="M4710 2514 c-19 -10 -20 -14 -7 -14 22 0 22 -6 -9 -120 -13 -52 -27
-124 -29 -160 l-4 -65 9 60 c10 70 57 261 71 286 12 24 0 29 -31 13z"/>
<path d="M4778 2523 c7 -3 16 -2 19 1 4 3 -2 6 -13 5 -11 0 -14 -3 -6 -6z"/>
<path d="M4639 2481 c-20 -16 -22 -22 -11 -33 11 -11 12 -10 7 4 -5 12 2 21
22 32 15 8 23 15 17 16 -7 0 -22 -9 -35 -19z"/>
<path d="M4768 2363 c7 -3 16 -2 19 1 4 3 -2 6 -13 5 -11 0 -14 -3 -6 -6z"/>
<path d="M4728 2353 c7 -3 16 -2 19 1 4 3 -2 6 -13 5 -11 0 -14 -3 -6 -6z"/>
<path d="M4857 2353 c-12 -11 -7 -44 10 -74 17 -28 17 -31 0 -60 -19 -34 -22
-59 -8 -59 15 0 41 42 41 67 0 13 16 41 36 63 20 22 32 40 28 40 -5 0 -22 -16
-38 -37 l-29 -36 -19 23 c-21 26 -23 51 -6 68 7 7 8 12 2 12 -6 0 -14 -3 -17
-7z m26 -153 c-5 -19 -23 -39 -23 -25 0 9 20 45 24 45 2 0 2 -9 -1 -20z"/>
<path d="M5338 2353 c12 -2 30 -2 40 0 9 3 -1 5 -23 4 -22 0 -30 -2 -17 -4z"/>
<path d="M5248 2343 c12 -2 30 -2 40 0 9 3 -1 5 -23 4 -22 0 -30 -2 -17 -4z"/>
<path d="M5565 2334 c17 -8 41 -25 54 -37 16 -14 22 -17 19 -7 -6 19 -66 60
-87 60 -9 0 -2 -7 14 -16z"/>
<path d="M4630 2330 c-18 -12 -2 -12 25 0 13 6 15 9 5 9 -8 0 -22 -4 -30 -9z"/>
<path d="M5188 2333 c6 -2 18 -2 25 0 6 3 1 5 -13 5 -14 0 -19 -2 -12 -5z"/>
<path d="M5123 2323 c9 -2 25 -2 35 0 9 3 1 5 -18 5 -19 0 -27 -2 -17 -5z"/>
<path d="M5016 2304 c-71 -22 -51 -26 24 -4 36 10 56 19 45 19 -11 0 -42 -7
-69 -15z"/>
<path d="M4573 2252 c-35 -14 -61 -27 -59 -30 7 -6 99 29 116 45 17 16 19 16
-57 -15z"/>
<path d="M4769 2234 c-18 -20 -47 -45 -64 -55 -16 -10 -24 -19 -18 -19 7 0 39
23 70 52 32 28 60 53 62 55 2 1 0 3 -5 3 -6 0 -26 -16 -45 -36z"/>
<path d="M4415 2200 l-20 -9 20 0 c11 0 29 4 40 9 l20 9 -20 0 c-11 0 -29 -4
-40 -9z"/>
<path d="M3910 2186 c0 -19 43 -42 95 -51 l40 -6 -36 14 c-20 8 -50 24 -68 36
-25 18 -31 19 -31 7z"/>
<path d="M4325 2175 c-39 -14 -40 -14 -5 -8 41 7 82 22 60 22 -8 0 -33 -7 -55
-14z"/>
<path d="M4198 2143 c7 -3 16 -2 19 1 4 3 -2 6 -13 5 -11 0 -14 -3 -6 -6z"/>
</g>
</svg>
