<svg version="1.1" id="Layer_1" xmlns="http://www.w3.org/2000/svg" xmlns:xlink="http://www.w3.org/1999/xlink" x="0px" y="0px"
	 width="100%" viewBox="0 0 662 199" enable-background="new 0 0 662 199" xml:space="preserve">
<path fill="#000000" opacity="0" stroke="none" 
	d="
M633.000000,200.000000 
	C422.000031,200.000000 211.500046,200.000000 1.000057,200.000000 
	C1.000038,133.666702 1.000038,67.333397 1.000019,1.000074 
	C221.666611,1.000050 442.333221,1.000050 662.999878,1.000025 
	C662.999878,67.333267 662.999878,133.666534 662.999939,199.999908 
	C653.166687,200.000000 643.333313,200.000000 633.000000,200.000000 
M171.024033,115.724350 
	C172.914734,122.720016 176.990616,127.616890 184.379547,128.936554 
	C187.203400,129.440887 190.397095,129.294235 190.914673,125.490250 
	C191.415710,121.807953 188.298203,121.525261 185.757797,121.012230 
	C182.312378,120.316422 180.104645,118.487877 180.061081,114.800621 
	C179.988663,108.672318 180.041336,102.542534 180.041336,95.996712 
	C182.172562,95.996712 184.090668,96.399101 185.710693,95.876839 
	C187.159439,95.409790 189.029633,94.086639 189.303085,92.833412 
	C189.515350,91.860519 187.781372,89.791351 186.504318,89.323456 
	C184.615829,88.631531 182.365448,88.927345 179.995010,88.786278 
	C179.995010,85.647972 180.406860,82.754517 179.848526,80.062279 
	C179.483398,78.301605 178.013031,76.055466 176.481903,75.462860 
	C175.096695,74.926743 172.957581,76.338470 171.013763,77.843491 
	C171.063782,90.219101 171.113785,102.594719 171.024033,115.724350 
M448.260406,127.798584 
	C451.061279,129.406952 453.770355,130.648270 455.825653,125.703270 
	C455.890900,117.484802 455.956146,109.266327 456.678223,100.777023 
	C458.840637,95.116829 465.312897,94.378227 470.007721,95.157089 
	C474.178894,95.849083 477.921295,101.261810 477.983429,106.254448 
	C478.059906,112.402626 477.757599,118.569412 478.179596,124.689499 
	C478.283752,126.200180 480.303070,128.221024 481.893433,128.831863 
	C484.107513,129.682251 486.133820,128.714142 486.112793,125.662827 
	C486.061340,118.184052 486.816559,110.610901 485.890991,103.246162 
	C484.159241,89.467018 472.858368,85.368492 459.096924,89.019196 
	C456.028809,89.038132 456.044220,86.974434 455.943359,84.695770 
	C455.757507,80.497856 455.311676,76.311455 454.275970,71.783524 
	C452.172241,71.825340 450.068481,71.867149 447.168854,72.301056 
	C447.110992,89.904449 447.042328,107.507851 447.036652,125.111252 
	C447.036438,125.778893 447.645447,126.446739 448.260406,127.798584 
M407.279175,127.712593 
	C411.001160,128.140045 414.729645,128.979080 418.443909,128.920135 
	C431.113220,128.719025 439.589630,114.900246 436.459167,104.001472 
	C433.238159,92.787407 425.800812,87.888382 412.907837,87.998177 
	C403.625885,88.077225 395.875000,95.658516 395.157257,104.136635 
	C394.196167,115.489456 394.271820,126.933548 394.041351,138.341263 
	C394.002838,140.246918 394.293152,142.357117 395.133026,144.018036 
	C395.769135,145.276001 397.461029,146.578033 398.797943,146.711716 
	C399.779877,146.809921 400.947784,145.048325 402.811554,143.693848 
	C402.873718,139.449692 403.068512,135.201904 402.952423,130.962631 
	C402.872253,128.034424 403.952759,126.682480 407.279175,127.712593 
M289.813324,72.253365 
	C287.990448,71.798965 285.713257,70.475777 284.468445,71.126740 
	C283.138916,71.822006 282.219086,74.346489 282.110901,76.132462 
	C281.804230,81.195580 282.003448,86.289345 282.003448,91.573944 
	C273.061646,86.200630 260.275024,86.281555 253.449554,93.924866 
	C248.194641,99.809456 245.992752,110.868118 249.582260,117.095200 
	C256.105957,128.412552 265.226776,131.132156 275.001068,128.767929 
	C282.410706,126.975662 290.221375,120.524620 290.882050,108.584091 
	C290.921204,97.530754 290.980682,86.477386 290.958740,75.424171 
	C290.957062,74.589134 290.376038,73.755249 289.813324,72.253365 
M139.027740,102.054192 
	C141.404785,103.048553 143.906708,103.822014 146.134033,105.081207 
	C151.509796,108.120300 151.599091,117.078499 146.176331,119.911758 
	C139.397705,123.453423 129.915710,123.391708 124.381927,115.888092 
	C121.479706,111.952774 118.692680,111.950371 115.164192,115.610916 
	C116.030373,117.493874 116.528984,119.712646 117.837486,121.235550 
	C125.528587,130.186783 143.264328,134.142227 154.369720,124.147812 
	C162.320938,116.992027 161.026672,101.421028 147.690704,97.087807 
	C143.140182,95.609215 138.320801,94.932861 133.601471,94.006012 
	C128.852570,93.073349 126.593506,89.550865 126.295891,85.445068 
	C126.022690,81.676109 128.525375,79.095436 132.579605,77.917862 
	C140.237701,75.693520 145.099014,77.331955 150.483337,83.696541 
	C151.689713,85.122551 154.709915,85.014076 156.895081,85.612038 
	C157.266235,84.064888 158.450577,81.990517 157.854202,81.070656 
	C156.147980,78.438950 153.970459,75.965591 151.527863,73.985611 
	C143.633240,67.586174 134.824509,68.831215 126.235802,72.021523 
	C116.588310,75.605110 115.153862,86.648918 119.917084,93.275986 
	C124.289703,99.359604 130.689392,102.034706 139.027740,102.054192 
M352.669250,119.101578 
	C350.892090,117.355186 349.346832,115.205505 347.256531,114.003754 
	C345.855682,113.198364 343.597656,113.428314 341.910553,113.885834 
	C341.470032,114.005287 341.128967,117.075195 341.787933,118.147141 
	C343.334686,120.663223 345.130768,123.353424 347.507965,124.970612 
	C354.843079,129.960648 362.666046,130.940399 371.514740,128.401611 
	C379.657684,126.065315 383.818420,120.671631 384.624115,113.339272 
	C385.263824,107.517784 382.522430,101.723038 376.446472,99.083969 
	C372.387512,97.320976 367.960510,96.423477 363.753967,94.976509 
	C360.312805,93.792816 355.652466,93.275986 353.925629,90.796753 
	C352.205536,88.327263 351.957397,82.509552 353.729645,80.408684 
	C357.549896,75.880165 366.394531,75.902466 371.409149,79.219818 
	C373.448486,80.568909 374.876282,82.829033 376.888306,84.237625 
	C378.181763,85.143166 380.032776,85.252296 381.633881,85.718399 
	C382.013611,83.906998 382.809845,82.053612 382.632935,80.298347 
	C382.505951,79.038696 381.170349,77.829651 380.215790,76.736084 
	C373.510162,69.054344 364.459473,68.979965 355.687317,70.423882 
	C351.823151,71.059921 347.347534,74.104401 345.129547,77.391472 
	C339.904968,85.134331 343.058258,95.008286 351.627655,98.729546 
	C356.581512,100.880737 362.134430,101.666252 367.433380,103.004539 
	C371.912323,104.135727 376.509918,109.168282 375.889587,113.127342 
	C375.198303,117.539230 372.239777,119.888626 367.776520,121.132057 
	C362.555573,122.586578 357.873566,121.906708 352.669250,119.101578 
M68.003311,108.445137 
	C68.609375,118.509636 74.178787,124.982635 83.165878,128.606506 
	C90.334976,131.497299 99.350082,128.638214 104.944916,122.227715 
	C102.197311,116.269249 101.707138,116.135765 95.692268,119.708336 
	C90.127716,123.013451 82.826675,120.968536 78.856140,115.735397 
	C75.075729,110.752846 77.373985,101.219101 81.510376,97.950897 
	C88.530434,92.404282 99.034798,95.568863 100.521103,104.018921 
	C96.831215,104.018921 93.113976,103.632416 89.544640,104.191017 
	C87.897209,104.448845 85.990944,106.312492 85.282173,107.923317 
	C84.931511,108.720245 86.887970,111.647728 88.042000,111.801689 
	C93.570427,112.539253 99.205551,113.136108 104.756050,112.856346 
	C109.884254,112.597855 112.286423,109.285164 110.879333,104.949120 
	C107.406281,94.246620 100.921982,86.232826 83.437500,87.948975 
	C76.241730,88.655258 68.708855,98.083305 68.003311,108.445137 
M580.436035,121.980240 
	C588.468140,129.852020 597.495911,131.297882 607.164673,126.431610 
	C609.953491,125.028008 612.360657,123.345352 610.397461,120.081573 
	C608.691589,117.245430 606.226074,117.634773 603.152344,119.084442 
	C600.028687,120.557648 596.133240,121.394836 592.731262,121.035942 
	C587.975525,120.534248 583.115479,114.835487 583.884521,107.681946 
	C584.575256,101.256996 588.449646,96.191826 595.224854,95.030418 
	C599.905334,94.228104 606.019165,98.406792 608.013611,104.350418 
	C603.911804,104.575806 599.985291,104.538551 596.156006,105.130432 
	C594.688965,105.357201 593.444092,107.021057 592.097961,108.030052 
	C593.490723,109.351334 594.801514,111.692810 596.290833,111.812439 
	C601.914307,112.264153 607.597229,111.919693 613.255005,112.025681 
	C616.058289,112.078186 616.926697,110.911163 617.060059,108.158714 
	C617.622253,96.551086 607.905334,87.821487 594.948547,87.923599 
	C586.475830,87.990379 580.453857,91.603874 577.059509,99.091591 
	C573.495239,106.954468 574.276001,114.597733 580.436035,121.980240 
M503.507141,110.004417 
	C503.697510,108.127426 503.671356,106.197388 504.115997,104.382706 
	C505.982910,96.763496 515.913940,92.746307 522.442139,97.113518 
	C524.265747,98.333473 525.433533,100.533821 526.902161,102.284409 
	C524.629028,103.191238 522.395020,104.223587 520.065308,104.948601 
	C519.001770,105.279587 517.728333,105.146141 516.587280,104.975136 
	C514.046875,104.594429 511.855377,105.640205 512.333496,108.038300 
	C512.643799,109.594543 515.167358,111.659302 516.854492,111.815048 
	C522.142456,112.303261 527.504639,112.041847 532.836975,111.977905 
	C536.360107,111.935661 538.843750,109.156853 537.893127,105.898315 
	C533.482361,90.779602 522.734863,84.801506 507.874146,89.082214 
	C499.682556,91.441841 496.059601,98.493774 495.100647,106.503906 
	C494.108795,114.788605 499.052002,123.160744 506.355865,126.724968 
	C514.209656,130.557571 521.917603,129.906387 529.141785,125.217216 
	C530.260742,124.490906 531.105652,121.809486 530.633179,120.593132 
	C530.155640,119.363670 527.949036,118.368423 526.375793,118.145264 
	C525.193970,117.977615 523.764648,119.104500 522.533325,119.808662 
	C514.434875,124.439911 505.221741,119.931038 503.507141,110.004417 
M211.507034,128.109848 
	C214.337906,128.731171 217.316437,130.248825 219.972885,129.811249 
	C229.136139,128.301773 235.783966,122.743729 237.477081,113.697601 
	C238.833282,106.451553 238.151413,98.759842 237.707245,91.305656 
	C237.635147,90.095726 234.186066,88.650780 232.111313,88.226082 
	C231.355179,88.071304 229.229126,90.522598 229.147537,91.870819 
	C228.806061,97.513817 229.025742,103.189529 228.997498,108.853043 
	C228.962753,115.818657 223.694000,121.758850 217.556503,121.803520 
	C211.985321,121.844063 207.067459,115.924309 207.006638,109.023628 
	C206.961105,103.860100 207.135666,98.690552 206.939606,93.534050 
	C206.831726,90.696709 206.279739,87.835236 202.282272,87.990135 
	C198.627838,88.131737 198.139847,90.816658 198.038361,93.464104 
	C197.853455,98.287804 197.804413,103.131798 198.022980,107.952621 
	C198.432907,116.994301 201.855621,124.263329 211.507034,128.109848 
M316.044159,112.470749 
	C312.475159,105.558128 308.782562,98.705360 305.392151,91.706230 
	C303.826904,88.474884 301.473541,86.817322 298.472382,88.569603 
	C297.526489,89.121872 297.637146,93.073555 298.503754,94.872223 
	C302.862030,103.918129 307.527496,112.822380 312.323059,121.647057 
	C313.621582,124.036575 313.659424,125.814339 312.441589,128.244492 
	C310.274048,132.569626 308.351166,137.066345 306.908478,141.673691 
	C306.513489,142.935211 307.758331,145.655579 308.994659,146.318146 
	C314.224701,149.121063 314.632599,143.839905 315.831390,141.258942 
	C320.599243,130.993958 324.879547,120.503624 329.423340,110.133102 
	C332.184998,103.830055 335.098450,97.593506 337.858643,91.514458 
	C332.799530,86.231026 330.790588,86.493355 328.148010,92.456932 
	C325.592804,98.223289 323.263092,104.094826 320.525574,109.771255 
	C319.876648,111.116875 317.993805,111.867424 316.044159,112.470749 
M545.003296,112.572708 
	C545.003418,116.223907 545.073181,119.876839 544.981995,123.525757 
	C544.906921,126.530632 545.651733,128.997223 549.139160,128.918045 
	C552.273621,128.846893 553.091492,126.584213 553.021179,123.742180 
	C552.922607,119.761490 552.995667,115.776543 552.996826,111.793411 
	C552.999939,101.201324 557.823608,95.749588 568.389648,93.958855 
	C569.712158,93.734718 570.795349,92.098022 571.989380,91.115822 
	C570.821777,89.752319 569.827271,87.488297 568.448547,87.223251 
	C565.999817,86.752518 563.189148,87.066750 560.756042,87.801521 
	C549.827881,91.101738 545.003845,98.562912 545.003296,112.572708 
z"/>
<path fill="#5ACBF5" opacity="1.000000" stroke="none" 
	d="
M138.603577,102.043839 
	C130.689392,102.034706 124.289703,99.359604 119.917084,93.275986 
	C115.153862,86.648918 116.588310,75.605110 126.235802,72.021523 
	C134.824509,68.831215 143.633240,67.586174 151.527863,73.985611 
	C153.970459,75.965591 156.147980,78.438950 157.854202,81.070656 
	C158.450577,81.990517 157.266235,84.064888 156.895081,85.612038 
	C154.709915,85.014076 151.689713,85.122551 150.483337,83.696541 
	C145.099014,77.331955 140.237701,75.693520 132.579605,77.917862 
	C128.525375,79.095436 126.022690,81.676109 126.295891,85.445068 
	C126.593506,89.550865 128.852570,93.073349 133.601471,94.006012 
	C138.320801,94.932861 143.140182,95.609215 147.690704,97.087807 
	C161.026672,101.421028 162.320938,116.992027 154.369720,124.147812 
	C143.264328,134.142227 125.528587,130.186783 117.837486,121.235550 
	C116.528984,119.712646 116.030373,117.493874 115.164192,115.610916 
	C118.692680,111.950371 121.479706,111.952774 124.381927,115.888092 
	C129.915710,123.391708 139.397705,123.453423 146.176331,119.911758 
	C151.599091,117.078499 151.509796,108.120300 146.134033,105.081207 
	C143.906708,103.822014 141.404785,103.048553 138.603577,102.043839 
z"/>
<path fill="#7FBDD4" opacity="1.000000" stroke="none" 
	d="
M352.927856,119.385422 
	C357.873566,121.906708 362.555573,122.586578 367.776520,121.132057 
	C372.239777,119.888626 375.198303,117.539230 375.889587,113.127342 
	C376.509918,109.168282 371.912323,104.135727 367.433380,103.004539 
	C362.134430,101.666252 356.581512,100.880737 351.627655,98.729546 
	C343.058258,95.008286 339.904968,85.134331 345.129547,77.391472 
	C347.347534,74.104401 351.823151,71.059921 355.687317,70.423882 
	C364.459473,68.979965 373.510162,69.054344 380.215790,76.736084 
	C381.170349,77.829651 382.505951,79.038696 382.632935,80.298347 
	C382.809845,82.053612 382.013611,83.906998 381.633881,85.718399 
	C380.032776,85.252296 378.181763,85.143166 376.888306,84.237625 
	C374.876282,82.829033 373.448486,80.568909 371.409149,79.219818 
	C366.394531,75.902466 357.549896,75.880165 353.729645,80.408684 
	C351.957397,82.509552 352.205536,88.327263 353.925629,90.796753 
	C355.652466,93.275986 360.312805,93.792816 363.753967,94.976509 
	C367.960510,96.423477 372.387512,97.320976 376.446472,99.083969 
	C382.522430,101.723038 385.263824,107.517784 384.624115,113.339272 
	C383.818420,120.671631 379.657684,126.065315 371.514740,128.401611 
	C362.666046,130.940399 354.843079,129.960648 347.507965,124.970612 
	C345.130768,123.353424 343.334686,120.663223 341.787933,118.147141 
	C341.128967,117.075195 341.470032,114.005287 341.910553,113.885834 
	C343.597656,113.428314 345.855682,113.198364 347.256531,114.003754 
	C349.346832,115.205505 350.892090,117.355186 352.927856,119.385422 
z"/>
<path fill="#70C2E1" opacity="1.000000" stroke="none" 
	d="
M290.129852,109.007881 
	C290.221375,120.524620 282.410706,126.975662 275.001068,128.767929 
	C265.226776,131.132156 256.105957,128.412552 249.582260,117.095200 
	C245.992752,110.868118 248.194641,99.809456 253.449554,93.924866 
	C260.275024,86.281555 273.061646,86.200630 282.003448,91.573944 
	C282.003448,86.289345 281.804230,81.195580 282.110901,76.132462 
	C282.219086,74.346489 283.138916,71.822006 284.468445,71.126740 
	C285.713257,70.475777 287.990448,71.798965 289.909058,73.058876 
	C290.046478,85.578888 290.088165,97.293381 290.129852,109.007881 
M273.256714,96.040894 
	C267.763641,94.534927 263.028687,95.760582 259.371582,100.193550 
	C254.285873,106.358200 255.094543,114.108139 260.710846,118.854805 
	C265.949036,123.281883 271.384247,123.888092 277.654449,117.805977 
	C284.944672,110.734451 283.574738,102.815407 273.256714,96.040894 
z"/>
<path fill="#86BBCD" opacity="1.000000" stroke="none" 
	d="
M402.032776,144.115540 
	C400.947784,145.048325 399.779877,146.809921 398.797943,146.711716 
	C397.461029,146.578033 395.769135,145.276001 395.133026,144.018036 
	C394.293152,142.357117 394.002838,140.246918 394.041351,138.341263 
	C394.271820,126.933548 394.196167,115.489456 395.157257,104.136635 
	C395.875000,95.658516 403.625885,88.077225 412.907837,87.998177 
	C425.800812,87.888382 433.238159,92.787407 436.459167,104.001472 
	C439.589630,114.900246 431.113220,128.719025 418.443909,128.920135 
	C414.729645,128.979080 411.001160,128.140045 406.887573,127.097748 
	C405.269135,125.798355 404.042328,125.113815 402.032776,123.992500 
	C402.032776,131.239868 402.032776,137.677704 402.032776,144.115540 
M421.368225,120.160812 
	C422.545929,119.304489 423.933411,118.631233 424.866791,117.561676 
	C430.301056,111.334679 430.348785,105.333870 425.234375,99.770439 
	C420.303497,94.406647 413.841949,93.660049 407.472595,98.285240 
	C402.565521,101.848587 401.432465,110.180084 405.053070,116.011559 
	C408.850006,122.126991 414.438110,122.855026 421.368225,120.160812 
z"/>
<path fill="#56CFFC" opacity="1.000000" stroke="none" 
	d="
M68.003777,108.011185 
	C68.708855,98.083305 76.241730,88.655258 83.437500,87.948975 
	C100.921982,86.232826 107.406281,94.246620 110.879333,104.949120 
	C112.286423,109.285164 109.884254,112.597855 104.756050,112.856346 
	C99.205551,113.136108 93.570427,112.539253 88.042000,111.801689 
	C86.887970,111.647728 84.931511,108.720245 85.282173,107.923317 
	C85.990944,106.312492 87.897209,104.448845 89.544640,104.191017 
	C93.113976,103.632416 96.831215,104.018921 100.521103,104.018921 
	C99.034798,95.568863 88.530434,92.404282 81.510376,97.950897 
	C77.373985,101.219101 75.075729,110.752846 78.856140,115.735397 
	C82.826675,120.968536 90.127716,123.013451 95.692268,119.708336 
	C101.707138,116.135765 102.197311,116.269249 104.944916,122.227715 
	C99.350082,128.638214 90.334976,131.497299 83.165878,128.606506 
	C74.178787,124.982635 68.609375,118.509636 68.003777,108.011185 
z"/>
<path fill="#A3AEB1" opacity="1.000000" stroke="none" 
	d="
M580.184082,121.712509 
	C574.276001,114.597733 573.495239,106.954468 577.059509,99.091591 
	C580.453857,91.603874 586.475830,87.990379 594.948547,87.923599 
	C607.905334,87.821487 617.622253,96.551086 617.060059,108.158714 
	C616.926697,110.911163 616.058289,112.078186 613.255005,112.025681 
	C607.597229,111.919693 601.914307,112.264153 596.290833,111.812439 
	C594.801514,111.692810 593.490723,109.351334 592.097961,108.030060 
	C593.444092,107.021057 594.688965,105.357201 596.156006,105.130432 
	C599.985291,104.538551 603.911804,104.575806 608.013611,104.350418 
	C606.019165,98.406792 599.905334,94.228104 595.224854,95.030418 
	C588.449646,96.191826 584.575256,101.256996 583.884521,107.681946 
	C583.115479,114.835487 587.975525,120.534248 592.731262,121.035942 
	C596.133240,121.394836 600.028687,120.557648 603.152344,119.084442 
	C606.226074,117.634773 608.691589,117.245430 610.397461,120.081573 
	C612.360657,123.345352 609.953491,125.028008 607.164673,126.431610 
	C597.495911,131.297882 588.468140,129.852020 580.184082,121.712509 
z"/>
<path fill="#94B5BF" opacity="1.000000" stroke="none" 
	d="
M503.726990,110.343369 
	C505.221741,119.931038 514.434875,124.439911 522.533325,119.808662 
	C523.764648,119.104500 525.193970,117.977615 526.375793,118.145264 
	C527.949036,118.368423 530.155640,119.363670 530.633179,120.593132 
	C531.105652,121.809486 530.260742,124.490906 529.141785,125.217216 
	C521.917603,129.906387 514.209656,130.557571 506.355865,126.724968 
	C499.052002,123.160744 494.108795,114.788605 495.100647,106.503906 
	C496.059601,98.493774 499.682556,91.441841 507.874146,89.082214 
	C522.734863,84.801506 533.482361,90.779602 537.893127,105.898315 
	C538.843750,109.156853 536.360107,111.935661 532.836975,111.977905 
	C527.504639,112.041847 522.142456,112.303261 516.854492,111.815048 
	C515.167358,111.659302 512.643799,109.594543 512.333496,108.038300 
	C511.855377,105.640205 514.046875,104.594429 516.587280,104.975136 
	C517.728333,105.146141 519.001770,105.279587 520.065308,104.948601 
	C522.395020,104.223587 524.629028,103.191238 526.902161,102.284424 
	C525.433533,100.533821 524.265747,98.333473 522.442139,97.113518 
	C515.913940,92.746307 505.982910,96.763496 504.115997,104.382706 
	C503.671356,106.197388 503.697510,108.127426 503.726990,110.343369 
z"/>
<path fill="#8CB7C5" opacity="1.000000" stroke="none" 
	d="
M455.033051,126.105103 
	C453.770355,130.648270 451.061279,129.406952 448.144928,126.981598 
	C448.007904,108.079391 447.986328,89.994179 447.964783,71.908966 
	C450.068481,71.867149 452.172241,71.825340 454.616699,72.412117 
	C454.957397,79.160629 454.957397,85.280556 454.957397,92.370773 
	C457.448914,90.767044 458.679962,89.974648 459.911011,89.182251 
	C472.858368,85.368492 484.159241,89.467018 485.890991,103.246162 
	C486.816559,110.610901 486.061340,118.184052 486.112793,125.662827 
	C486.133820,128.714142 484.107513,129.682251 481.893433,128.831863 
	C480.303070,128.221024 478.283752,126.200180 478.179596,124.689499 
	C477.757599,118.569412 478.059906,112.402626 477.983429,106.254448 
	C477.921295,101.261810 474.178894,95.849083 470.007721,95.157089 
	C465.312897,94.378227 458.840637,95.116829 456.097717,101.235130 
	C455.355835,109.830528 455.194427,117.967812 455.033051,126.105103 
z"/>
<path fill="#68C5E7" opacity="1.000000" stroke="none" 
	d="
M211.106812,128.073395 
	C201.855621,124.263329 198.432907,116.994301 198.022980,107.952621 
	C197.804413,103.131798 197.853455,98.287804 198.038361,93.464104 
	C198.139847,90.816658 198.627838,88.131737 202.282272,87.990135 
	C206.279739,87.835236 206.831726,90.696709 206.939606,93.534050 
	C207.135666,98.690552 206.961105,103.860100 207.006638,109.023628 
	C207.067459,115.924309 211.985321,121.844063 217.556503,121.803520 
	C223.694000,121.758850 228.962753,115.818657 228.997498,108.853043 
	C229.025742,103.189529 228.806061,97.513817 229.147537,91.870819 
	C229.229126,90.522598 231.355179,88.071304 232.111313,88.226082 
	C234.186066,88.650780 237.635147,90.095726 237.707245,91.305656 
	C238.151413,98.759842 238.833282,106.451553 237.477081,113.697601 
	C235.783966,122.743729 229.136139,128.301773 219.972885,129.811249 
	C217.316437,130.248825 214.337906,128.731171 211.106812,128.073395 
z"/>
<path fill="#78C0DA" opacity="1.000000" stroke="none" 
	d="
M316.361328,112.681221 
	C317.993805,111.867424 319.876648,111.116875 320.525574,109.771255 
	C323.263092,104.094826 325.592804,98.223289 328.148010,92.456932 
	C330.790588,86.493355 332.799530,86.231026 337.858643,91.514458 
	C335.098450,97.593506 332.184998,103.830055 329.423340,110.133102 
	C324.879547,120.503624 320.599243,130.993958 315.831390,141.258942 
	C314.632599,143.839905 314.224701,149.121063 308.994659,146.318146 
	C307.758331,145.655579 306.513489,142.935211 306.908478,141.673691 
	C308.351166,137.066345 310.274048,132.569626 312.441589,128.244492 
	C313.659424,125.814339 313.621582,124.036575 312.323059,121.647057 
	C307.527496,112.822380 302.862030,103.918129 298.503754,94.872223 
	C297.637146,93.073555 297.526489,89.121872 298.472382,88.569603 
	C301.473541,86.817322 303.826904,88.474884 305.392151,91.706230 
	C308.782562,98.705360 312.475159,105.558128 316.361328,112.681221 
z"/>
<path fill="#60C8EE" opacity="1.000000" stroke="none" 
	d="
M171.150909,76.891304 
	C172.957581,76.338470 175.096695,74.926743 176.481903,75.462860 
	C178.013031,76.055466 179.483398,78.301605 179.848526,80.062279 
	C180.406860,82.754517 179.995010,85.647972 179.995010,88.786278 
	C182.365448,88.927345 184.615829,88.631531 186.504318,89.323456 
	C187.781372,89.791351 189.515350,91.860519 189.303085,92.833412 
	C189.029633,94.086639 187.159439,95.409790 185.710693,95.876839 
	C184.090668,96.399101 182.172562,95.996712 180.041336,95.996712 
	C180.041336,102.542534 179.988663,108.672318 180.061081,114.800621 
	C180.104645,118.487877 182.312378,120.316422 185.757797,121.012230 
	C188.298203,121.525261 191.415710,121.807953 190.914673,125.490250 
	C190.397095,129.294235 187.203400,129.440887 184.379547,128.936554 
	C176.990616,127.616890 172.914734,122.720016 171.345795,115.019821 
	C171.776718,104.582146 171.952988,94.848991 171.952133,85.115852 
	C171.951889,82.374313 171.432297,79.632820 171.150909,76.891304 
z"/>
<path fill="#9BB1B8" opacity="1.000000" stroke="none" 
	d="
M545.003296,112.089310 
	C545.003845,98.562912 549.827881,91.101738 560.756042,87.801521 
	C563.189148,87.066750 565.999817,86.752518 568.448547,87.223251 
	C569.827271,87.488297 570.821777,89.752319 571.989380,91.115829 
	C570.795349,92.098022 569.712158,93.734718 568.389648,93.958855 
	C557.823608,95.749588 552.999939,101.201324 552.996826,111.793411 
	C552.995667,115.776543 552.922607,119.761490 553.021179,123.742180 
	C553.091492,126.584213 552.273621,128.846893 549.139160,128.918045 
	C545.651733,128.997223 544.906921,126.530632 544.981995,123.525757 
	C545.073181,119.876839 545.003418,116.223907 545.003296,112.089310 
z"/>
<path fill="#E1ECEF" opacity="1.000000" stroke="none" 
	d="
M447.566833,72.105011 
	C447.986328,89.994179 448.007904,108.079391 448.000000,126.639549 
	C447.645447,126.446739 447.036438,125.778893 447.036652,125.111252 
	C447.042328,107.507851 447.110992,89.904449 447.566833,72.105011 
z"/>
<path fill="#C0E8F7" opacity="1.000000" stroke="none" 
	d="
M171.082336,77.367401 
	C171.432297,79.632820 171.951889,82.374313 171.952133,85.115852 
	C171.952988,94.848991 171.776718,104.582146 171.415680,114.642807 
	C171.113785,102.594719 171.063782,90.219101 171.082336,77.367401 
z"/>
<path fill="#FCFCFC" opacity="1.000000" stroke="none" 
	d="
M290.505951,108.795990 
	C290.088165,97.293381 290.046478,85.578888 290.034546,73.392609 
	C290.376038,73.755249 290.957062,74.589134 290.958740,75.424171 
	C290.980682,86.477386 290.921204,97.530754 290.505951,108.795990 
z"/>
<path fill="#DAE6EB" opacity="1.000000" stroke="none" 
	d="
M459.503967,89.100723 
	C458.679962,89.974648 457.448914,90.767044 454.957397,92.370773 
	C454.957397,85.280556 454.957397,79.160629 454.965820,72.580482 
	C455.311676,76.311455 455.757507,80.497856 455.943359,84.695770 
	C456.044220,86.974434 456.028809,89.038132 459.503967,89.100723 
z"/>
<path fill="#DFECF1" opacity="1.000000" stroke="none" 
	d="
M402.422180,143.904694 
	C402.032776,137.677704 402.032776,131.239868 402.032776,123.992500 
	C404.042328,125.113815 405.269135,125.798355 406.703552,126.733383 
	C403.952759,126.682480 402.872253,128.034424 402.952423,130.962631 
	C403.068512,135.201904 402.873718,139.449692 402.422180,143.904694 
z"/>
<path fill="#D0E1E7" opacity="1.000000" stroke="none" 
	d="
M455.429352,125.904190 
	C455.194427,117.967812 455.355835,109.830528 455.769348,101.370544 
	C455.956146,109.266327 455.890900,117.484802 455.429352,125.904190 
z"/>
<path fill="#000000" opacity="1.000000" stroke="none" 
	d="
M273.652313,96.061493 
	C283.574738,102.815407 284.944672,110.734451 277.654449,117.805977 
	C271.384247,123.888092 265.949036,123.281883 260.710846,118.854805 
	C255.094543,114.108139 254.285873,106.358200 259.371582,100.193550 
	C263.028687,95.760582 267.763641,94.534927 273.652313,96.061493 
z"/>
<path fill="#000000" opacity="1.000000" stroke="none" 
	d="
M421.081329,120.433029 
	C414.438110,122.855026 408.850006,122.126991 405.053070,116.011559 
	C401.432465,110.180084 402.565521,101.848587 407.472595,98.285240 
	C413.841949,93.660049 420.303497,94.406647 425.234375,99.770439 
	C430.348785,105.333870 430.301056,111.334679 424.866791,117.561676 
	C423.933411,118.631233 422.545929,119.304489 421.081329,120.433029 
z"/>
</svg>